<svg width="190" height="40" viewBox="0 0 190 40" fill="none" xmlns="http://www.w3.org/2000/svg">
<g clip-path="url(#clip0_103_27)">
<path d="M51 29.6245H47.4229C47.0266 20.0475 39.5631 12.1217 29.7219 10.3383C30.8447 9.28157 31.5052 7.8285 31.5052 6.17729C31.5052 2.87485 28.8632 0.23291 25.5608 0.23291C22.2584 0.23291 19.6164 2.87485 19.6164 6.17729C19.6164 7.8285 20.2769 9.34762 21.3997 10.4044C11.5585 12.1877 4.09501 20.1135 3.69872 29.6906H-8.99831e-06C-1.69674e-06 31.0116 -1.69674e-06 30.285 -1.69674e-06 31.0116C-1.69674e-06 31.7381 -3.05176e-05 31.2329 -8.99831e-06 32.3325H51C51 31.7329 51 31.9594 51 31.2329C51 30.5064 51 30.2329 51 29.6245ZM25.5608 2.87485C27.4102 2.87485 28.8632 4.32792 28.8632 6.17729C28.8632 8.02665 27.4102 9.47972 25.5608 9.47972C23.7114 9.47972 22.2584 8.02665 22.2584 6.17729C22.2584 4.32792 23.7114 2.87485 25.5608 2.87485ZM25.5608 12.65C35.8644 12.65 44.3186 20.2456 44.781 29.6906H6.34066C6.803 20.1796 15.2572 12.65 25.5608 12.65Z" fill="#F25E3D"/>
<path d="M51 36.8238H-4.57764e-05C-4.57764e-05 37.2329 9.23872e-07 37.4183 9.23872e-07 38.1448C9.23872e-07 38.8713 -4.57764e-05 38.7329 -4.82798e-06 39.4658H51C51 38.7329 51 38.9594 51 38.2329C51 37.5064 51 37.7329 51 36.8238Z" fill="#F25E3D"/>
<path d="M82.9189 26.2649C83.1283 26.2649 83.2959 26.3487 83.4216 26.4744C83.5472 26.6419 83.5891 26.8095 83.5891 27.0189C83.5891 27.8148 83.2121 28.6945 82.4581 29.7417C81.7041 30.789 80.8663 31.6268 80.0285 32.2132C79.484 32.5064 78.9813 32.7578 78.3949 32.9253C77.8084 33.0929 77.3057 33.2186 76.8869 33.3023C76.8031 33.3442 76.7193 33.3442 76.6355 33.3861C75.8396 33.5537 75.0018 33.6374 74.0803 33.6374C71.4831 33.6374 69.2211 33.1348 67.2942 32.0875C65.3673 31.0822 63.9012 29.6161 62.8958 27.6892C61.8486 25.8042 61.3459 23.5421 61.3459 20.945C61.3459 16.798 62.477 13.6144 64.7809 11.3524C67.0848 9.04846 70.2265 7.91746 74.2897 7.91746C75.4207 7.91746 76.3423 8.00123 77.0544 8.16879H77.1801C77.222 8.21068 77.2639 8.21068 77.3476 8.21068C77.5152 8.25257 77.6827 8.29446 77.8503 8.37824H77.8922H77.9341C80.4055 9.25791 82.1649 11.0591 83.1283 13.8238C83.3378 14.6197 83.2959 15.3318 83.0027 15.9602C82.7095 16.5885 82.2906 17.0074 81.7041 17.2169C81.1177 17.4682 80.4893 17.3844 79.8191 17.0912C79.2745 16.798 78.8556 16.4629 78.6462 16.044C78.3949 15.5832 78.4368 15.1224 78.6462 14.6197C78.7719 14.4103 78.9394 14.2008 79.1489 13.9495C79.3583 13.7819 79.5678 13.5725 79.6934 13.2793C79.8191 13.0279 79.9029 12.8185 79.9867 12.5672C80.0285 12.3577 80.0285 12.1064 79.9448 11.855C79.8191 11.478 79.6515 11.1848 79.4002 10.9335C78.0598 9.80247 76.5517 9.25791 74.8762 9.25791C72.5723 9.25791 70.8129 10.2633 69.5143 12.2739C68.8022 13.4468 68.2577 14.913 67.9644 16.6723C67.755 17.929 67.6293 19.3532 67.6293 20.945C67.6293 24.5056 68.2996 27.2703 69.64 29.2391C70.9805 31.2079 72.7817 32.1713 75.0437 32.1713C76.8031 32.1713 78.353 31.6268 79.6515 30.4958C80.8663 29.4904 81.6622 28.2337 82.0811 26.7676C82.2068 26.4325 82.4162 26.2649 82.7095 26.2649H82.9189ZM87.4848 17.5101C89.0347 15.9183 91.3805 15.1224 94.5222 15.1224C97.6639 15.1224 100.01 15.9183 101.56 17.5101C103.11 19.1019 103.864 21.4058 103.864 24.4218C103.864 30.6633 100.764 33.7631 94.5222 33.7631C91.3805 33.7631 89.0347 32.9672 87.4848 31.3754C85.9349 29.7836 85.139 27.4797 85.139 24.4218C85.139 21.4058 85.9349 19.1019 87.4848 17.5101ZM91.8413 30.4958C92.3859 31.7105 93.2655 32.297 94.5222 32.297C95.7789 32.297 96.6586 31.7105 97.2031 30.5376C97.7477 29.3647 97.999 27.3541 97.999 24.5056C97.999 21.6152 97.7477 19.5627 97.2031 18.3479C96.6586 17.1331 95.7789 16.5466 94.5222 16.5466C93.2655 16.5466 92.3859 17.1331 91.8413 18.3479C91.2968 19.5627 91.0035 21.6152 91.0035 24.5056C91.0035 27.3122 91.2968 29.3229 91.8413 30.4958ZM107.885 17.5101C109.435 15.9183 111.781 15.1224 114.922 15.1224C118.064 15.1224 120.41 15.9183 121.96 17.5101C123.51 19.1019 124.264 21.4058 124.264 24.4218C124.264 30.6633 121.164 33.7631 114.922 33.7631C111.781 33.7631 109.435 32.9672 107.885 31.3754C106.335 29.7836 105.539 27.4797 105.539 24.4218C105.539 21.4058 106.335 19.1019 107.885 17.5101ZM112.241 30.4958C112.786 31.7105 113.666 32.297 114.922 32.297C116.179 32.297 117.059 31.7105 117.603 30.5376C118.148 29.3647 118.399 27.3541 118.399 24.5056C118.399 21.6152 118.148 19.5627 117.603 18.3479C117.059 17.1331 116.179 16.5466 114.922 16.5466C113.666 16.5466 112.786 17.1331 112.241 18.3479C111.697 19.5627 111.404 21.6152 111.404 24.5056C111.404 27.3122 111.697 29.3229 112.241 30.4958ZM146.674 32.674C146.674 32.4645 146.632 32.297 146.465 32.1713C146.339 32.0038 146.172 31.9619 145.962 31.9619L145.46 32.0038C145.292 32.0457 145.124 31.9619 144.873 31.7943C144.664 31.6687 144.496 31.4592 144.329 31.2498L138.841 21.7828C138.673 21.4896 138.632 21.1963 138.673 20.8612C138.715 20.568 138.883 20.2748 139.134 20.0653L142.36 17.3006C142.821 16.9236 143.239 16.7142 143.658 16.7142L144.496 16.7561C144.664 16.7561 144.831 16.7142 144.957 16.5885C145.124 16.4629 145.166 16.2953 145.166 16.1277C145.166 15.9183 145.124 15.7926 144.999 15.6251C144.873 15.4994 144.706 15.4575 144.538 15.4575H138.673C138.506 15.4575 138.338 15.4994 138.213 15.6251C138.087 15.7926 138.003 15.9183 138.003 16.1277C138.003 16.2953 138.087 16.4629 138.213 16.5885C138.338 16.7142 138.506 16.7561 138.715 16.7561L139.846 16.7142C139.93 16.6723 140.014 16.7142 140.098 16.798C140.181 16.8399 140.223 16.9236 140.223 17.0074C140.223 17.2169 140.14 17.3844 139.972 17.552L134.485 22.2436C134.191 22.453 133.94 22.4949 133.647 22.3692C133.354 22.2017 133.228 21.9922 133.228 21.6571V8.83902C133.228 8.67146 133.144 8.5039 133.018 8.37824C132.893 8.25257 132.767 8.16879 132.558 8.16879H126.484C126.274 8.16879 126.149 8.25257 126.023 8.37824C125.855 8.5039 125.813 8.67146 125.813 8.83902C125.813 9.00658 125.897 9.17413 126.023 9.2998C126.149 9.42547 126.316 9.50925 126.526 9.46736L127.196 9.42547C127.531 9.42547 127.698 9.71869 127.698 10.3051V31.2079C127.698 31.6268 127.531 31.92 127.154 32.0038L126.484 31.9619C126.316 31.9619 126.107 32.0038 125.981 32.1294C125.855 32.297 125.772 32.4645 125.772 32.6321V32.674C125.772 32.8416 125.855 33.0091 125.981 33.1348C126.107 33.2604 126.274 33.3442 126.442 33.3442H134.568C134.736 33.3442 134.903 33.2604 135.029 33.1348C135.155 33.0091 135.239 32.8416 135.239 32.674V32.6321C135.239 32.4645 135.155 32.297 135.029 32.1294C134.903 32.0038 134.736 31.9619 134.526 31.9619L133.772 32.0038C133.395 32.0457 133.228 31.7524 133.228 31.2079V25.469C133.228 25.2177 133.312 25.0502 133.479 24.8826C133.689 24.715 133.898 24.6731 134.108 24.715C134.359 24.7569 134.526 24.8826 134.652 25.0502L138.338 31.4173C138.422 31.5849 138.464 31.7105 138.422 31.8362C138.38 31.9619 138.255 32.0038 138.045 32.0038H137.961L137.291 31.9619C137.082 31.9619 136.914 32.0038 136.747 32.1294C136.621 32.297 136.537 32.4645 136.537 32.6321V32.674C136.537 32.8416 136.621 33.0091 136.747 33.1348C136.872 33.2604 137.04 33.3442 137.249 33.3442H146.004C146.214 33.3442 146.339 33.2604 146.507 33.1348C146.632 33.0091 146.674 32.8416 146.674 32.674ZM159.241 30.6214C159.241 29.7417 158.906 28.9877 158.32 28.3594C157.691 27.773 156.937 27.4378 156.058 27.4378C155.22 27.4378 154.466 27.773 153.837 28.3594C153.209 28.9877 152.916 29.7417 152.916 30.6214C152.916 31.5011 153.209 32.2132 153.837 32.8416C154.466 33.4699 155.22 33.7631 156.058 33.7631C156.937 33.7631 157.691 33.4699 158.32 32.8416C158.906 32.2132 159.241 31.5011 159.241 30.6214ZM164.603 11.855C163.849 11.855 163.179 11.6037 162.676 11.0591C162.131 10.5146 161.838 9.88625 161.838 9.13224C161.838 8.33635 162.131 7.70801 162.676 7.16345C163.179 6.61889 163.849 6.36755 164.603 6.36755C165.357 6.36755 166.027 6.61889 166.572 7.16345C167.116 7.70801 167.368 8.33635 167.368 9.13224C167.368 9.88625 167.116 10.5146 166.572 11.0591C166.027 11.6037 165.357 11.855 164.603 11.855ZM168.582 31.9619C168.75 31.9619 168.959 32.0038 169.085 32.1294C169.211 32.297 169.295 32.4645 169.295 32.6321C169.295 32.8415 169.253 33.0091 169.085 33.1348C168.959 33.2604 168.792 33.3442 168.624 33.3442H160.623C160.414 33.3442 160.246 33.2604 160.121 33.1348C159.995 33.0091 159.911 32.8415 159.911 32.6321C159.911 32.4645 159.995 32.297 160.121 32.1294C160.288 32.0038 160.456 31.9619 160.665 31.9619L161.294 32.0038H161.377C161.713 32.0038 161.838 31.7105 161.838 31.2079V17.5939C161.838 17.1331 161.671 16.8399 161.336 16.7561L160.665 16.798C160.456 16.798 160.288 16.7561 160.163 16.6304C160.037 16.4629 159.953 16.3372 159.953 16.1277C159.953 15.9602 160.037 15.7926 160.163 15.667C160.288 15.4994 160.456 15.4575 160.623 15.4575H166.697C166.865 15.4575 167.032 15.4994 167.158 15.667C167.284 15.7926 167.368 15.9602 167.368 16.1277V31.2079C167.368 31.7524 167.535 32.0457 167.912 32.0038L168.582 31.9619ZM172.771 17.5101C174.321 15.9183 176.667 15.1224 179.809 15.1224C182.95 15.1224 185.296 15.9183 186.846 17.5101C188.396 19.1019 189.15 21.4058 189.15 24.4218C189.15 30.6633 186.05 33.7631 179.809 33.7631C176.667 33.7631 174.321 32.9672 172.771 31.3754C171.221 29.7836 170.426 27.4797 170.426 24.4218C170.426 21.4058 171.221 19.1019 172.771 17.5101ZM177.128 30.4958C177.672 31.7105 178.552 32.297 179.809 32.297C181.065 32.297 181.945 31.7105 182.49 30.5376C183.034 29.3647 183.286 27.3541 183.286 24.5056C183.286 21.6152 183.034 19.5627 182.49 18.3479C181.945 17.1331 181.065 16.5466 179.809 16.5466C178.552 16.5466 177.672 17.1331 177.128 18.3479C176.583 19.5627 176.29 21.6152 176.29 24.5056C176.29 27.3122 176.583 29.3229 177.128 30.4958Z" fill="#F5F5F5"/>
</g>
<defs>
<clipPath id="clip0_103_27">
<rect width="189.15" height="39.2329" fill="white" transform="translate(0 0.23291)"/>
</clipPath>
</defs>
</svg>
