<svg width="156" height="33" viewBox="0 0 156 33" fill="none" xmlns="http://www.w3.org/2000/svg">
<g clip-path="url(#clip0_196_4958)">
<path d="M42.0619 24.4731H39.1117C38.7849 16.6616 32.6294 10.197 24.5129 8.74242C25.439 7.88047 25.9837 6.69528 25.9837 5.34848C25.9837 2.65488 23.8048 0.5 21.0811 0.5C18.3575 0.5 16.1785 2.65488 16.1785 5.34848C16.1785 6.69528 16.7233 7.93434 17.6493 8.7963C9.53282 10.2508 3.37736 16.7155 3.05052 24.5269H1.77479e-05C2.37698e-05 25.6044 2.37698e-05 25.0118 2.37698e-05 25.6044C2.37698e-05 26.197 0 25.7849 1.77479e-05 26.6818H42.0619C42.0619 26.1927 42.0619 26.3775 42.0619 25.7849C42.0619 25.1923 42.0619 24.9693 42.0619 24.4731ZM21.0811 2.65488C22.6064 2.65488 23.8048 3.84007 23.8048 5.34848C23.8048 6.8569 22.6064 8.04209 21.0811 8.04209C19.5559 8.04209 18.3575 6.8569 18.3575 5.34848C18.3575 3.84007 19.5559 2.65488 21.0811 2.65488ZM21.0811 10.6279C29.5789 10.6279 36.5515 16.8232 36.9328 24.5269H5.22944C5.61075 16.7694 12.5833 10.6279 21.0811 10.6279Z" fill="#F25E3D"/>
<path d="M42.0619 30.3451H0C0 30.6788 3.85157e-05 30.83 3.85157e-05 31.4226C3.85157e-05 32.0152 0 31.9022 3.37719e-05 32.5H42.0619C42.0619 31.9022 42.0619 32.087 42.0619 31.4944C42.0619 30.9018 42.0619 31.0866 42.0619 30.3451Z" fill="#F25E3D"/>
<path d="M68.3866 21.7328C68.5594 21.7328 68.6975 21.8011 68.8012 21.9036C68.9048 22.0403 68.9394 22.177 68.9394 22.3478C68.9394 22.997 68.6284 23.7145 68.0066 24.5686C67.3847 25.4228 66.6938 26.1061 66.0028 26.5845C65.5537 26.8236 65.1391 27.0286 64.6554 27.1653C64.1718 27.302 63.7572 27.4045 63.4117 27.4728C63.3426 27.507 63.2735 27.507 63.2044 27.5411C62.548 27.6778 61.8571 27.7461 61.097 27.7461C58.9551 27.7461 57.0895 27.3361 55.5003 26.482C53.9111 25.662 52.7019 24.4661 51.8728 22.8945C51.0091 21.357 50.5945 19.512 50.5945 17.3937C50.5945 14.0112 51.5273 11.4145 53.4274 9.56949C55.3275 7.69033 57.9186 6.76783 61.2698 6.76783C62.2026 6.76783 62.9626 6.83616 63.5499 6.97283H63.6536C63.6881 7.00699 63.7227 7.00699 63.7917 7.00699C63.9299 7.04116 64.0681 7.07533 64.2063 7.14366H64.2409H64.2754C66.3137 7.86116 67.7648 9.33033 68.5594 11.5853C68.7321 12.2345 68.6975 12.8153 68.4557 13.3278C68.2139 13.8403 67.8684 14.182 67.3847 14.3528C66.9011 14.5578 66.3828 14.4895 65.8301 14.2503C65.381 14.0112 65.0355 13.7378 64.8627 13.3962C64.6554 13.0203 64.69 12.6445 64.8627 12.2345C64.9664 12.0637 65.1046 11.8928 65.2773 11.6878C65.45 11.5512 65.6228 11.3803 65.7264 11.1412C65.8301 10.9362 65.8992 10.7653 65.9683 10.5603C66.0028 10.3895 66.0028 10.1845 65.9337 9.97949C65.8301 9.67199 65.6919 9.43283 65.4846 9.22783C64.3791 8.30533 63.1353 7.86116 61.7534 7.86116C59.8533 7.86116 58.4023 8.68116 57.3313 10.3212C56.744 11.2778 56.2949 12.4737 56.053 13.9087C55.8803 14.9337 55.7767 16.0953 55.7767 17.3937C55.7767 20.2978 56.3294 22.5528 57.435 24.1586C58.5405 25.7645 60.026 26.5503 61.8916 26.5503C63.3426 26.5503 64.6209 26.1061 65.6919 25.1836C66.6938 24.3636 67.3502 23.3386 67.6957 22.1428C67.7993 21.8695 67.972 21.7328 68.2139 21.7328H68.3866ZM72.1523 14.592C73.4306 13.2937 75.3653 12.6445 77.9564 12.6445C80.5474 12.6445 82.4821 13.2937 83.7604 14.592C85.0387 15.8903 85.6605 17.7695 85.6605 20.2295C85.6605 25.3203 83.104 27.8486 77.9564 27.8486C75.3653 27.8486 73.4306 27.1995 72.1523 25.9011C70.8741 24.6028 70.2176 22.7236 70.2176 20.2295C70.2176 17.7695 70.8741 15.8903 72.1523 14.592ZM75.7453 25.1836C76.1944 26.1745 76.9199 26.6528 77.9564 26.6528C78.9928 26.6528 79.7183 26.1745 80.1674 25.2178C80.6165 24.2611 80.8238 22.6211 80.8238 20.2978C80.8238 17.9403 80.6165 16.2662 80.1674 15.2753C79.7183 14.2845 78.9928 13.8062 77.9564 13.8062C76.9199 13.8062 76.1944 14.2845 75.7453 15.2753C75.2962 16.2662 75.0543 17.9403 75.0543 20.2978C75.0543 22.587 75.2962 24.227 75.7453 25.1836ZM88.9771 14.592C90.2554 13.2937 92.1901 12.6445 94.7811 12.6445C97.3722 12.6445 99.3069 13.2937 100.585 14.592C101.863 15.8903 102.485 17.7695 102.485 20.2295C102.485 25.3203 99.9288 27.8486 94.7811 27.8486C92.1901 27.8486 90.2554 27.1995 88.9771 25.9011C87.6988 24.6028 87.0424 22.7236 87.0424 20.2295C87.0424 17.7695 87.6988 15.8903 88.9771 14.592ZM92.5701 25.1836C93.0192 26.1745 93.7447 26.6528 94.7811 26.6528C95.8176 26.6528 96.5431 26.1745 96.9922 25.2178C97.4413 24.2611 97.6486 22.6211 97.6486 20.2978C97.6486 17.9403 97.4413 16.2662 96.9922 15.2753C96.5431 14.2845 95.8176 13.8062 94.7811 13.8062C93.7447 13.8062 93.0192 14.2845 92.5701 15.2753C92.121 16.2662 91.8791 17.9403 91.8791 20.2978C91.8791 22.587 92.121 24.227 92.5701 25.1836ZM120.968 26.9603C120.968 26.7895 120.934 26.6528 120.796 26.5503C120.692 26.4136 120.554 26.3795 120.381 26.3795L119.967 26.4136C119.828 26.4478 119.69 26.3795 119.483 26.2428C119.31 26.1403 119.172 25.9695 119.034 25.7986L114.508 18.077C114.37 17.8378 114.335 17.5987 114.37 17.3253C114.404 17.0862 114.543 16.847 114.75 16.6762L117.41 14.4212C117.79 14.1137 118.135 13.9428 118.481 13.9428L119.172 13.977C119.31 13.977 119.448 13.9428 119.552 13.8403C119.69 13.7378 119.725 13.6012 119.725 13.4645C119.725 13.2937 119.69 13.1912 119.586 13.0545C119.483 12.952 119.345 12.9178 119.206 12.9178H114.37C114.232 12.9178 114.093 12.952 113.99 13.0545C113.886 13.1912 113.817 13.2937 113.817 13.4645C113.817 13.6012 113.886 13.7378 113.99 13.8403C114.093 13.9428 114.232 13.977 114.404 13.977L115.337 13.9428C115.406 13.9087 115.475 13.9428 115.544 14.0112C115.613 14.0453 115.648 14.1137 115.648 14.182C115.648 14.3528 115.579 14.4895 115.441 14.6262L110.915 18.4528C110.673 18.6236 110.466 18.6578 110.224 18.5553C109.982 18.4186 109.879 18.2478 109.879 17.9745V7.51949C109.879 7.38283 109.809 7.24616 109.706 7.14366C109.602 7.04116 109.499 6.97283 109.326 6.97283H104.316C104.144 6.97283 104.04 7.04116 103.936 7.14366C103.798 7.24616 103.764 7.38283 103.764 7.51949C103.764 7.65616 103.833 7.79283 103.936 7.89533C104.04 7.99783 104.178 8.06616 104.351 8.03199L104.904 7.99783C105.18 7.99783 105.318 8.23699 105.318 8.71533V25.7645C105.318 26.1061 105.18 26.3453 104.869 26.4136L104.316 26.3795C104.178 26.3795 104.005 26.4136 103.902 26.5161C103.798 26.6528 103.729 26.7895 103.729 26.9261V26.9603C103.729 27.097 103.798 27.2336 103.902 27.3361C104.005 27.4386 104.144 27.507 104.282 27.507H110.984C111.122 27.507 111.26 27.4386 111.364 27.3361C111.468 27.2336 111.537 27.097 111.537 26.9603V26.9261C111.537 26.7895 111.468 26.6528 111.364 26.5161C111.26 26.4136 111.122 26.3795 110.95 26.3795L110.328 26.4136C110.017 26.4478 109.879 26.2086 109.879 25.7645V21.0836C109.879 20.8786 109.948 20.742 110.086 20.6053C110.259 20.4686 110.431 20.4345 110.604 20.4686C110.811 20.5028 110.95 20.6053 111.053 20.742L114.093 25.9353C114.162 26.072 114.197 26.1745 114.162 26.277C114.128 26.3795 114.024 26.4136 113.852 26.4136H113.782L113.23 26.3795C113.057 26.3795 112.919 26.4136 112.781 26.5161C112.677 26.6528 112.608 26.7895 112.608 26.9261V26.9603C112.608 27.097 112.677 27.2336 112.781 27.3361C112.884 27.4386 113.022 27.507 113.195 27.507H120.416C120.588 27.507 120.692 27.4386 120.83 27.3361C120.934 27.2336 120.968 27.097 120.968 26.9603ZM131.333 25.2861C131.333 24.5686 131.056 23.9536 130.573 23.4411C130.054 22.9628 129.433 22.6895 128.707 22.6895C128.016 22.6895 127.394 22.9628 126.876 23.4411C126.358 23.9536 126.116 24.5686 126.116 25.2861C126.116 26.0036 126.358 26.5845 126.876 27.097C127.394 27.6095 128.016 27.8486 128.707 27.8486C129.433 27.8486 130.054 27.6095 130.573 27.097C131.056 26.5845 131.333 26.0036 131.333 25.2861ZM135.755 9.97949C135.133 9.97949 134.58 9.77449 134.166 9.33032C133.717 8.88616 133.475 8.37366 133.475 7.75866C133.475 7.10949 133.717 6.59699 134.166 6.15283C134.58 5.70866 135.133 5.50366 135.755 5.50366C136.377 5.50366 136.929 5.70866 137.379 6.15283C137.828 6.59699 138.035 7.10949 138.035 7.75866C138.035 8.37366 137.828 8.88616 137.379 9.33032C136.929 9.77449 136.377 9.97949 135.755 9.97949ZM139.037 26.3795C139.175 26.3795 139.348 26.4136 139.451 26.5161C139.555 26.6528 139.624 26.7895 139.624 26.9261C139.624 27.097 139.59 27.2336 139.451 27.3361C139.348 27.4386 139.21 27.507 139.071 27.507H132.473C132.3 27.507 132.162 27.4386 132.058 27.3361C131.955 27.2336 131.886 27.097 131.886 26.9261C131.886 26.7895 131.955 26.6528 132.058 26.5161C132.196 26.4136 132.335 26.3795 132.507 26.3795L133.026 26.4136H133.095C133.371 26.4136 133.475 26.1745 133.475 25.7645V14.6603C133.475 14.2845 133.337 14.0453 133.06 13.977L132.507 14.0112C132.335 14.0112 132.196 13.977 132.093 13.8745C131.989 13.7378 131.92 13.6353 131.92 13.4645C131.92 13.3278 131.989 13.1912 132.093 13.0887C132.196 12.952 132.335 12.9178 132.473 12.9178H137.482C137.62 12.9178 137.759 12.952 137.862 13.0887C137.966 13.1912 138.035 13.3278 138.035 13.4645V25.7645C138.035 26.2086 138.173 26.4478 138.484 26.4136L139.037 26.3795ZM142.492 14.592C143.77 13.2937 145.705 12.6445 148.296 12.6445C150.887 12.6445 152.821 13.2937 154.1 14.592C155.378 15.8903 156 17.7695 156 20.2295C156 25.3203 153.443 27.8486 148.296 27.8486C145.705 27.8486 143.77 27.1995 142.492 25.9011C141.213 24.6028 140.557 22.7236 140.557 20.2295C140.557 17.7695 141.213 15.8903 142.492 14.592ZM146.085 25.1836C146.534 26.1745 147.259 26.6528 148.296 26.6528C149.332 26.6528 150.058 26.1745 150.507 25.2178C150.956 24.2611 151.163 22.6211 151.163 20.2978C151.163 17.9403 150.956 16.2662 150.507 15.2753C150.058 14.2845 149.332 13.8062 148.296 13.8062C147.259 13.8062 146.534 14.2845 146.085 15.2753C145.636 16.2662 145.394 17.9403 145.394 20.2978C145.394 22.587 145.636 24.227 146.085 25.1836Z" fill="#222020"/>
</g>
<defs>
<clipPath id="clip0_196_4958">
<rect width="156" height="32" fill="white" transform="translate(0 0.5)"/>
</clipPath>
</defs>
</svg>
